<svg xmlns="http://www.w3.org/2000/svg" aria-hidden="true" style="position:absolute;width:0;height:0;overflow:hidden">
  <symbol id="icon-script" viewBox="0 0 24 24" fill="none" stroke="currentColor" stroke-width="1.8" stroke-linecap="round" stroke-linejoin="round">
    <path d="M7.5 3.5h7l4 4V19a1.5 1.5 0 0 1-1.5 1.5h-9A1.5 1.5 0 0 1 6.5 19V5A1.5 1.5 0 0 1 8 3.5z"/>
    <path d="M14.5 3.5V8h4"/>
    <line x1="9" y1="12" x2="16" y2="12"/>
    <line x1="9" y1="15" x2="16" y2="15"/>
    <line x1="9" y1="18" x2="13" y2="18"/>
  </symbol>
  <symbol id="icon-deans-list" viewBox="0 0 24 24" fill="none" stroke="currentColor" stroke-width="1.8" stroke-linecap="round" stroke-linejoin="round">
    <path d="M6.3 2.7h2.6L12 8.6 9.4 10.8z"/>
    <path d="M17.7 2.7h-2.6L12 8.6l2.6 2.2z"/>
    <path d="M10.2 10.6h3.6v2.2h-3.6z"/>
    <circle cx="12" cy="16.5" r="5.3"/>
    <circle cx="12" cy="16.5" r="4.1"/>
    <path d="m12 14.5.73 1.5 1.66.24-1.2 1.16.28 1.64L12 18.3l-1.47.79.28-1.64-1.2-1.16 1.66-.24z"/>
    <path d="M9.2 18.6c-1.05-.58-1.73-1.37-2.15-2.45"/>
    <path d="M14.8 18.6c1.05-.58 1.73-1.37 2.15-2.45"/>
    <line x1="8.1" y1="17.9" x2="7.2" y2="18.3"/>
    <line x1="8.6" y1="16.9" x2="7.6" y2="17"/>
    <line x1="9.1" y1="16" x2="8.3" y2="15.7"/>
    <line x1="15.9" y1="17.9" x2="16.8" y2="18.3"/>
    <line x1="15.4" y1="16.9" x2="16.4" y2="17"/>
    <line x1="14.9" y1="16" x2="15.7" y2="15.7"/>
  </symbol>
</svg>
